<svg xmlns="http://www.w3.org/2000/svg" width="1280" height="320" viewBox="0 0 1280 320" role="img" aria-labelledby="title description">
  <title id="title">Mateo Osorio Delhonte — Software Engineer, Platform Engineering, AI Systems</title>
  <desc id="description">A dark engineering-themed banner with a subtle grid and connected system nodes.</desc>
  <defs>
    <linearGradient id="background" x1="0" y1="0" x2="1" y2="1">
      <stop offset="0" stop-color="#0d1117"/>
      <stop offset="1" stop-color="#111c2e"/>
    </linearGradient>
    <pattern id="grid" width="32" height="32" patternUnits="userSpaceOnUse">
      <path d="M32 0H0V32" fill="none" stroke="#30363d" stroke-width="1"/>
    </pattern>
  </defs>

  <rect width="1280" height="320" rx="20" fill="url(#background)"/>
  <rect width="1280" height="320" rx="20" fill="url(#grid)" opacity="0.42"/>
  <rect x="1" y="1" width="1278" height="318" rx="19" fill="none" stroke="#30363d" stroke-width="2"/>

  <rect x="72" y="46" width="88" height="5" rx="2.5" fill="#58a6ff"/>
  <text x="72" y="112" fill="#f0f6fc" font-family="-apple-system, BlinkMacSystemFont, 'Segoe UI', sans-serif" font-size="46" font-weight="700" letter-spacing="-1.2">Mateo Osorio Delhonte</text>
  <text x="72" y="157" fill="#58a6ff" font-family="-apple-system, BlinkMacSystemFont, 'Segoe UI', sans-serif" font-size="22" font-weight="600">Software Engineer · Platform Engineering · AI Systems</text>
  <text x="72" y="199" fill="#b1bac4" font-family="-apple-system, BlinkMacSystemFont, 'Segoe UI', sans-serif" font-size="18">Building reliable software, developer tools, and grounded AI systems.</text>

  <circle cx="78" cy="254" r="5" fill="#3fb950"/>
  <text x="94" y="260" fill="#8c959f" font-family="ui-monospace, SFMono-Regular, Menlo, Consolas, monospace" font-size="15" letter-spacing="0.3">evidence → root cause → bounded change → verification</text>

  <g transform="translate(976 48)">
    <path d="M52 66L148 38L214 108L168 194L66 180L52 66Z" fill="#161b22" stroke="#30363d" stroke-width="2"/>
    <path d="M52 66L148 38M148 38L214 108M214 108L168 194M168 194L66 180M66 180L52 66M52 66L168 194M148 38L66 180" fill="none" stroke="#58a6ff" stroke-width="2" opacity="0.58"/>
    <circle cx="52" cy="66" r="13" fill="#0d1117" stroke="#58a6ff" stroke-width="3"/>
    <circle cx="148" cy="38" r="13" fill="#0d1117" stroke="#3fb950" stroke-width="3"/>
    <circle cx="214" cy="108" r="13" fill="#0d1117" stroke="#58a6ff" stroke-width="3"/>
    <circle cx="168" cy="194" r="13" fill="#0d1117" stroke="#3fb950" stroke-width="3"/>
    <circle cx="66" cy="180" r="13" fill="#0d1117" stroke="#58a6ff" stroke-width="3"/>
    <circle cx="126" cy="116" r="25" fill="#111c2e" stroke="#f0f6fc" stroke-width="2"/>
    <path d="M116 116L123 123L139 106" fill="none" stroke="#3fb950" stroke-width="4" stroke-linecap="round" stroke-linejoin="round"/>
  </g>
</svg>
